<svg xmlns="http://www.w3.org/2000/svg" width="16" height="16" fill="none" viewBox="0 0 16 16"><path fill="#e0f2f1" stroke="#00796b" d="M2.5 3.83333L8 1.54167L13.5 3.83333L13.5 9.17871C13.5 10.7502 12.7145 11.9168 11.6339 12.8852C10.8323 13.6036 9.84849 14.226 8.90452 14.8218L8.9021 14.8233C8.59264 15.0186 8.28712 15.2115 8 15.4009C7.71296 15.2115 7.40754 15.0187 7.09817 14.8235L7.09548 14.8218C6.15151 14.226 5.16769 13.6036 4.36607 12.8852C3.28548 11.9168 2.5 10.7502 2.5 9.17871V3.83333Z"/><path fill="#00796b" d="M10.94 8Q10.94 8.97 10.61 9.7Q10.29 10.43 9.64 10.83Q8.99 11.23 8 11.23Q7 11.23 6.35 10.83Q5.7 10.42 5.38 9.69Q5.06 8.96 5.06 7.99Q5.06 7.02 5.38 6.3Q5.7 5.57 6.36 5.17Q7.01 4.77 8.01 4.77Q8.99 4.77 9.64 5.17Q10.29 5.57 10.61 6.29Q10.94 7.02 10.94 8ZM6.14 8Q6.14 9.09 6.59 9.73Q7.04 10.36 8 10.36Q8.98 10.36 9.42 9.73Q9.86 9.09 9.86 8Q9.86 6.89 9.42 6.27Q8.98 5.64 8.01 5.64Q7.04 5.64 6.59 6.27Q6.14 6.9 6.14 8Z"/></svg>